<svg xmlns="http://www.w3.org/2000/svg" viewBox="0 0 150.01 150.02"><defs><style>.cls-1{fill:#151413;}.cls-2{fill:#d2e6d9;}.cls-3{fill:#ece5b2;}.cls-4{fill:#f4f1ce;}.cls-5{fill:#f7f4e5;}.cls-6{fill:#beb4cb;}.cls-7{fill:#a7957f;}.cls-8{fill:#abe4c2;}.cls-9{fill:#7a8873;}.cls-10{fill:#95d5b5;}.cls-11{fill:#998873;}</style></defs><title>Recurso 1</title><g id="Capa_2" data-name="Capa 2"><g id="Capa_1-2" data-name="Capa 1"><path class="cls-1" d="M86.06,138.6c-1.7,6.83-5.22,10.27-10.59,10.53a10.69,10.69,0,0,1-7.8-2.86c-2.22-2-3.19-4.59-3.76-7.7L61,141.07a36,36,0,0,1-18.84,8.33,62.9,62.9,0,0,1-15.45.17c-7.44-.81-14.89-1.58-22.33-2.36-1.24-.13-1.63-.47-1.69-1.67C2.44,139.6,1.3,133.76.76,127.85S-.32,116,.24,110.07A37.13,37.13,0,0,1,9.88,87.75c.42-.46.82-1,1.38-1.62-1.28-.4-2.34-.67-3.36-1a10.78,10.78,0,0,1,0-20.26c1-.36,2-.6,3-.89.31-1-.61-1.3-1.06-1.79a37.25,37.25,0,0,1-9.54-22,91.09,91.09,0,0,1,.41-17.4c.56-6.17,1.71-12.27,2-18.47.06-1.15.48-1.52,1.75-1.59C10.28,2.4,16,1.35,21.78.8,28,.21,34.1-.36,40.33.29A37.09,37.09,0,0,1,61.66,9.41c.67.58,1.18,1.39,2.21,1.61.29-1,.55-2,.89-2.95A10.78,10.78,0,0,1,85,7.73c.41,1,.66,2.16,1,3.24,1-.09,1.55-.94,2.2-1.52A37,37,0,0,1,109.53.3c6.36-.66,12.64-.08,18.93.54,5.65.56,11.29,1.25,16.93,1.87,1.4.15,1.68.43,1.84,1.93q1.2,11.36,2.41,22.71a58.43,58.43,0,0,1-.49,16.6,35.23,35.23,0,0,1-8,17c-.42.5-.86,1-1.29,1.45l-1,1.17c.6.94,1.6.8,2.37,1a10.92,10.92,0,0,1,7.93,10.33c.12,4.84-3.12,9-8.09,10.6-.7.22-1.44.35-2.35.56a13.2,13.2,0,0,0,1,1.33c7.07,7.39,10,16.39,10.29,26.42a122.8,122.8,0,0,1-.94,15.46c-.52,5.39-1.21,10.77-1.81,16.16-.17,1.48-.36,1.66-1.93,1.83-7.7.82-15.4,1.66-23.1,2.46a56.82,56.82,0,0,1-17-.68,35.28,35.28,0,0,1-16.79-8.34Z"/><path class="cls-2" d="M24.46,36.07c-.84-.43-.71-1.27-.88-2-.26-1.09-.83-1.62-1.43-1.41-.92.33-.89,1.14-.89,1.92a4.89,4.89,0,0,0,1,2.87,7.6,7.6,0,0,0,9.93,2.41,25.64,25.64,0,0,0,2.85-2c.87.31.75,1.19.92,1.88,1.6,6.64,6,10.3,12.51,11.57a11.55,11.55,0,0,0,12.41-6.54A2.37,2.37,0,0,0,61,44a1.17,1.17,0,0,0-.61-1.28.87.87,0,0,0-1,.23c-.52.54-1,1.12-1.51,1.69-2.9,1.37-5.71,3-9.15,2.58-4.4-.49-7.49-2.68-9-6.83a7.38,7.38,0,0,1,1.82-8.21c3-3,6.53-4,10.65-2.49,6.84,2.48,10.64,8,13.68,14.08,3.31,6.65,4.61,13.94,5.86,21.19,1.31,7.57,1.23,7.41-6.51,7.62C51.49,73,39,69.06,27.55,61.84A31.9,31.9,0,0,1,14.83,47.21c-2.74-6.43-2.16-12.67,2.56-18.11a9.08,9.08,0,0,1,13.16-.86c2.35,2,3.18,4.89,1.76,6.84-1.78,2.43-4.09,3-6.76,1.37A3.93,3.93,0,0,0,24.46,36.07Z"/><path class="cls-2" d="M113.72,24.55c.59-1.15,1.82-.74,2.72-1.12a1.22,1.22,0,0,0,.87-1.13c0-.58-.46-.86-1-1a5,5,0,0,0-4,1,7.61,7.61,0,0,0-2.19,10,29.41,29.41,0,0,0,2,2.8c-.89.92-2.14.79-3.22,1.12C102,38.31,97.43,45.82,98.78,52.76c.75,3.83,3.14,6.36,6.5,8.09a2.16,2.16,0,0,0,1.11.14c.38,0,.76-.18.82-.64,0-.24.09-.6,0-.73-.62-.63-1.3-1.2-2-1.79-2.28-4.24-3.65-8.54-1.14-13.21,2.12-4,6-6,9.87-5.13a9.38,9.38,0,0,1,6.91,9.16c.09,4.78-2.32,8.33-5.64,11.41-6,5.53-13.34,8.19-21.07,10-4,.92-8,1.64-12.06,2.39-3.52.66-4.75-.22-4.86-3.44-.49-15.49,2.79-30,12-42.69,5.52-7.6,12.47-13.56,22.86-12.85,7,.48,12.1,5.63,11.88,11.81,0,.23,0,.35,0,.39-.1,3.36-2.07,5.52-4.83,6.93a4.08,4.08,0,0,1-5-.76C111.84,29.52,113.05,27,113.72,24.55Z"/><path class="cls-2" d="M36.18,125.39c-.67,1.26-2.18.56-3.06,1.32-.29.25-.67.51-.49.94a1.52,1.52,0,0,0,.7.84,4.45,4.45,0,0,0,4-.74,7.61,7.61,0,0,0,2.4-10.23,34.38,34.38,0,0,0-2.1-2.91c1.09-.3,2.07-.57,3-.86a15.21,15.21,0,0,0,10.77-13.28A11.82,11.82,0,0,0,44.5,89a1.16,1.16,0,0,0-.74-.12,2.21,2.21,0,0,0-1,.53.78.78,0,0,0,.07,1.06c.52.55,1.11,1,1.67,1.55,2,3.85,3.48,7.77,1.88,12.2-1.8,5-6.49,7.59-11.33,6.27-4.19-1.14-6.93-6-6-10.83a18,18,0,0,1,7.33-11c7-5.27,15.07-7.77,23.49-9.41,3-.59,6.08-1.08,9.1-1.71,2.31-.47,3.36.41,3.48,2.78.83,16.48-2.87,31.72-12.79,45.07a28.49,28.49,0,0,1-16.66,11.19,15.54,15.54,0,0,1-13.77-3.4,9.71,9.71,0,0,1-3-10.54c1.32-3.87,4.68-6,8-5.07C37.13,118.33,37.67,120.62,36.18,125.39Z"/><path class="cls-2" d="M125.25,113.57c1.29.64.77,2.09,1.36,3a1.63,1.63,0,0,0,.83.69c.62.16,1-.34,1.11-.83a4.53,4.53,0,0,0-.88-4,7.53,7.53,0,0,0-10.27-2.18c-1,.58-1.81,1.34-2.81,2.09-.27-1-.47-1.9-.73-2.75-1.88-6.35-6.2-10-12.66-11a11.39,11.39,0,0,0-12.11,6.48,2.72,2.72,0,0,0-.24.73,1.19,1.19,0,0,0,.56,1.31.89.89,0,0,0,1.07-.15,19,19,0,0,0,1.34-1.35c3.67-2.15,7.49-3.51,11.79-2.16,4.73,1.49,7.68,5.82,7,10.27s-4.35,7.07-9.6,7.1a13.2,13.2,0,0,1-9-3.76c-7.29-6.4-10.22-15-12.2-24.05-.85-3.88-1.66-7.78-2.23-11.73-.42-2.86.41-4,3.47-4.1a74.06,74.06,0,0,1,32.35,6,47.34,47.34,0,0,1,18.14,13.41c6.22,7.55,7,17.39,1.65,23.8-3.91,4.74-10.37,5.15-14.22.91A5.18,5.18,0,0,1,118,115c1.27-2.29,3.4-2.52,5.72-1.8A5.86,5.86,0,0,0,125.25,113.57Z"/><path class="cls-3" d="M104.28,70.88l4.9-2.19a35,35,0,0,0,9.2-5.65,19.46,19.46,0,0,0,6.8-13.87c.26-4.68-1.32-8.61-5.27-11.39a2.12,2.12,0,0,1-1.07-1.21c.11-.08.26-.27.45-.32,8.11-2,10.63-12.5,6.79-19a15.08,15.08,0,0,0-11.2-7.46,23.22,23.22,0,0,0-13.58,2,37.35,37.35,0,0,0-12.8,9.83,54.22,54.22,0,0,0-7.4,11.3,7.64,7.64,0,0,1-1.49,2.67c-1.26-1.23-.67-2.63-.34-4,4.08-16.86,18-27.77,35.41-28,8.42-.13,16.69,1,25,2.16,3.08.44,4.35,2.07,4.54,5.17.54,8.76.67,17.52.82,26.29.28,16.41-9.11,26.52-22.47,31.87a49.32,49.32,0,0,1-12.81,2.91C107.87,72.14,105.84,72.55,104.28,70.88Z"/><path class="cls-3" d="M70.87,45.67c-.89-1-1.06-2.32-1.57-3.49A42.59,42.59,0,0,0,64,32.75a19.92,19.92,0,0,0-12.19-7.63C46,24,41.07,25.27,37.53,30.36a2.51,2.51,0,0,1-.54.54,1.51,1.51,0,0,1-.38.14c-.13-.17-.35-.31-.39-.5-1.55-7.11-11.72-11.21-19.47-6.42a15,15,0,0,0-7,11.07,23.66,23.66,0,0,0,2.07,13.58A38.11,38.11,0,0,0,22.55,62.28a54.41,54.41,0,0,0,8,5.39c.88.5,1.73,1.06,2.6,1.6-2.07,2-4.15.62-6.09-.14C11.65,63,4.3,51.28,3.59,35c-.35-8,1-15.92,1.85-23.85C5.81,8,7.55,6.22,10.64,6c12.08-1.06,24.2-2.4,36.25,0,8.86,1.79,14.67,7.77,19.21,15.14C69.69,27,71.28,33.47,72,40.21,72.19,42.06,72.54,44.12,70.87,45.67Z"/><path class="cls-3" d="M46.32,78.85c-1,.89-2.32,1-3.49,1.53A44.18,44.18,0,0,0,33,85.71,20,20,0,0,0,25,98.88c-.87,5.55.56,10.2,5.35,13.52a10.24,10.24,0,0,1,1,.92c-.55.22-1,.41-1.41.56-7,2.43-9.61,11.28-6.62,17.79a14.48,14.48,0,0,0,8,7.5,20.14,20.14,0,0,0,13.63.42,32,32,0,0,0,12.06-6.71,48.39,48.39,0,0,0,11.28-14.59c.58-1.13,1.25-2.22,1.87-3.32,1.32,1.2.73,2.61.38,4-3.85,14.77-15.15,24.64-30.17,26.9-10.15,1.52-20-.42-30-1.6C8,144,6.7,142.47,6.38,140.13c-1.72-12.31-2.89-24.71-.38-37,2.17-10.59,9.92-16.89,19.14-21.44,4.67-2.3,9.82-3.2,14.94-3.88C42.18,77.55,44.49,77.06,46.32,78.85Z"/><path class="cls-3" d="M78.79,103.49c.89,1,1,2.32,1.52,3.5a43.59,43.59,0,0,0,5.3,9.83,20,20,0,0,0,12,7.92c6.09,1.34,11.24.07,15-5.29a4.94,4.94,0,0,1,.55-.59c.89.3.75,1.21,1,1.8a11.68,11.68,0,0,0,9.51,7c8,1.21,13.31-3.59,15.5-8.87a20.3,20.3,0,0,0,.36-14,33,33,0,0,0-7.33-12.58,50.3,50.3,0,0,0-14.83-11,9.82,9.82,0,0,1-3-1.65c1.69-1.48,3.49-.56,5.13-.06,14.5,4.42,23.52,13.82,26.3,29,1.56,8.54.26,17-.69,25.39-.08.77-.32,1.51-.41,2.28-.84,7.09-1.44,7.42-8.57,8.06-7.6.68-15.21.55-22.81.8-15.84.51-27.19-9.07-32.28-22.49A56.39,56.39,0,0,1,77.81,109C77.59,107.11,77.22,105.09,78.79,103.49Z"/><path class="cls-4" d="M78.79,103.49c-.43,8,1.66,15.54,4.87,22.74a19.54,19.54,0,0,0,4.84,6.9c2.61,2.28,4.72,5.11,7.76,6.93a16.86,16.86,0,0,0,3.11,1.51,38.27,38.27,0,0,0,13.19,2.29c3.74,0,7.48,0,11.21,0,2.7,0,5.41.27,8-.66a6.42,6.42,0,0,1,1.92-.1c.78,0,1.55,0,2.32,0,2.22.09,4.28-.72,6.41-1.12a22.81,22.81,0,0,0,1.42-6.29c.33-3.17.9-6.32,1.33-9.49a24.14,24.14,0,0,0,.18-2.69c0-1.8-.06-3.61,0-5.41a42.32,42.32,0,0,0-3.89-19.46,22.16,22.16,0,0,0-4.85-7.33A52.63,52.63,0,0,0,129.36,85a37,37,0,0,0-10.93-4.66c-1.33-.35-2.64-1.14-4.12-.78l-7.59-2.53c.21-.93.84-.61,1.24-.67a11.27,11.27,0,0,1,1.93,0,13.27,13.27,0,0,1,1.54.1c9.34,1.15,17.74,4.45,24.72,10.9a34.11,34.11,0,0,1,11,21.61c.74,6,.27,11.86-.29,17.77-.51,5.39-1.28,10.76-2,16.14-.22,1.74-.26,1.78-2.11,2-7.81,1-15.61,2.09-23.48,2.55a54.12,54.12,0,0,1-14.25-1,32.15,32.15,0,0,1-17.75-10.34,41.6,41.6,0,0,1-10.88-29.39c.06-3.1.06-6.2.08-9.3.23-.38.47-.37.72,0C77.68,99.42,78.66,101.34,78.79,103.49Z"/><path class="cls-4" d="M46.32,78.85c-5-.61-9.71.63-14.48,1.68A42.12,42.12,0,0,0,19.53,85.9a2.88,2.88,0,0,0-.63.45c-3.14,3.23-6.73,6-9.2,9.9a23.66,23.66,0,0,0-3,8.68c-1.23,6.64-.71,13.36-.78,20a12.13,12.13,0,0,0,.49,4.59,5.21,5.21,0,0,1,.24,2.29c-.33,3.13.69,6.12.87,9.2A1.89,1.89,0,0,0,9.15,143c1.65.23,3.26.68,4.9,1,3.8.72,7.65.78,11.46,1.23A39.62,39.62,0,0,0,39,144.86c1.87-.42,3.8-.51,5.69-1A33.18,33.18,0,0,0,63.9,130.56c3-4.19,4.56-8.92,6.13-13.68a6.74,6.74,0,0,0,0-1.91c.88-2.56,1.75-5.11,2.64-7.66,0-.06.23-.06.53-.12A5.35,5.35,0,0,1,73.6,110c-.86,9.93-4.23,18.82-11,26.21A34,34,0,0,1,41,147.12a79.94,79.94,0,0,1-17.36-.26c-5.64-.53-11.26-1.35-16.88-2-.82-.1-1.51-.25-1.61-1.27-.75-8.08-2.28-16.08-2.5-24.22a64.46,64.46,0,0,1,.59-12.72A33.55,33.55,0,0,1,17.37,84.41a41.52,41.52,0,0,1,26.1-8c3.22.11,6.45.09,9.67.13.27.15.36.29.25.4a.45.45,0,0,1-.3.16C50.81,77.58,48.68,78.67,46.32,78.85Z"/><path class="cls-4" d="M104.28,70.88A43.08,43.08,0,0,0,129.93,64a30.6,30.6,0,0,0,11.58-13.15,24,24,0,0,0,1.62-5.52c1.29-6.79.52-13.63.7-20.44a31.65,31.65,0,0,0-.56-7.68c-.5-2.22-.16-4.63-.21-7-.06-2.58-.51-3.19-3-3.57-4.31-.66-8.61-1.31-13-1.74-2.94-.3-5.87-.51-8.82-.64-5.63-.26-11,1-16.27,2.72a35.34,35.34,0,0,0-7,3.23,25.06,25.06,0,0,0-6.89,6.15,35.12,35.12,0,0,0-7.28,13.9c-.4,1.74-1.48,3.32-1.19,5.22-.84,2.52-1.68,5.05-2.56,7.67-1-.48-.72-1.2-.7-1.7.7-14.26,6.29-25.9,18.44-33.9A31.49,31.49,0,0,1,109.7,2.77a88,88,0,0,1,18.14.5c5,.62,10,1.2,15,1.79,1.76.21,1.82.2,2,1.69,1,8.18,2.2,16.35,2.63,24.6a53.16,53.16,0,0,1-.92,13.08,32.89,32.89,0,0,1-11.2,18.93A42,42,0,0,1,110,73.56c-4,.26-8-.17-12-.28-.22-.33-.13-.55.23-.68A27.13,27.13,0,0,1,104.28,70.88Z"/><path class="cls-4" d="M70.87,45.67A42.23,42.23,0,0,0,64.1,20,32.2,32.2,0,0,0,51.41,8.49a14.09,14.09,0,0,0-3.65-1.2,48.92,48.92,0,0,0-11-1.42c-3.87.09-7.75,0-11.62,0A21.55,21.55,0,0,0,19,6.47a12,12,0,0,1-4.23.17,23.62,23.62,0,0,0-6.1.84A2.21,2.21,0,0,0,6.7,9.57c-.59,4.58-1.79,9.08-1.61,13.75A7.25,7.25,0,0,1,5,25.24c-1,4.21-.66,8.37-.06,12.63A56.53,56.53,0,0,0,7,47.63,29.81,29.81,0,0,0,18.18,63a51.74,51.74,0,0,0,11.23,5.91,6.05,6.05,0,0,0,3.77.4l9,3.35a.47.47,0,0,1,.34.72c-3.27.74-6.42-.1-9.55-.82A40.23,40.23,0,0,1,10.43,59.09,32.9,32.9,0,0,1,2.78,40.4a84.86,84.86,0,0,1,.47-18.16c.62-5,1.2-10,1.79-15,.23-2,.22-2,2-2.16,7.7-.8,15.34-2.2,23.1-2.44a64.1,64.1,0,0,1,13.9.7A32.86,32.86,0,0,1,62.56,13.75,41.71,41.71,0,0,1,73.55,40c.27,4.11-.14,8.26-.23,12.39-.27.36-.49.35-.68-.07Z"/><path class="cls-5" d="M125.25,113.57c-.1.47-.13,1.21-.78,1-.83-.27-1.49-.92-2.48-.93a3.39,3.39,0,0,0-3.72,3.11,4.51,4.51,0,0,0,1.75,4.44c4,3,7.44,3.11,11.48-.28a10.46,10.46,0,0,0,3-4.45,18.81,18.81,0,0,0,1.46-5.57,16.58,16.58,0,0,0-1.47-7.47,33.11,33.11,0,0,0-6.1-8.86,40.8,40.8,0,0,0-11.69-8.75,67.76,67.76,0,0,0-17.41-6.16A72.57,72.57,0,0,0,82.06,78c-.65,0-1.3,0-1.94.06-1.61.18-2.24,1-1.9,2.67,1.19,5.51,2.36,11,3.62,16.52a37.52,37.52,0,0,0,6.23,14,24.76,24.76,0,0,0,8.09,7.61,11,11,0,0,0,8.29.68c6-1.75,6.54-8.47,3.68-11.82-3.31-3.86-7.38-4.58-12.55-2.86-1,.32-1.86.88-2.82,1.27-.38.15-.71-.13-.94-.47,1.65-3.44,4.55-4.74,8.19-4.66a12.7,12.7,0,0,1,11.09,7.81c2.64,6.77-1.64,14.68-10.67,13.91a17.22,17.22,0,0,1-12.27-6.62,35.06,35.06,0,0,1-4.84-8.34A82.51,82.51,0,0,1,78,89.22c-.64-3.68-1.1-7.4-1.55-11.11-.17-1.32.18-1.65,1.43-1.7,12.67-.52,25,.92,36.67,6.22a49.56,49.56,0,0,1,13.24,8.64,33,33,0,0,1,8.66,12.21,20.5,20.5,0,0,1,1.22,11.76,13.34,13.34,0,0,1-3,6.19,11.59,11.59,0,0,1-14.77,2.32,7.77,7.77,0,0,1-3.93-5.9,5.34,5.34,0,0,1,3.14-5.69C121.41,111.22,123.62,111.23,125.25,113.57Z"/><path class="cls-5" d="M36.18,125.39c-.73-1.36.12-2.72,0-4.11-.24-2.28-.85-2.93-3.09-3-3.62-.15-5.76,2.7-6.22,6.56s1.68,7.69,6.28,9.62A29.48,29.48,0,0,0,39.08,136a8.55,8.55,0,0,0,3.45-.15A29.23,29.23,0,0,0,59,125a60.52,60.52,0,0,0,9-17.37,74,74,0,0,0,3.58-15.35c.51-4.19.15-8.5.12-12.76,0-1-.62-1.53-1.47-1.34-6.26,1.4-12.61,2.37-18.79,4.12A47.76,47.76,0,0,0,36.37,90a16.63,16.63,0,0,0-6.25,9.51c-.81,3.13.26,5.84,2.14,8.3a4.54,4.54,0,0,0,2.21,1.51c2.81,1,6.88,1,9.18-2.07,2-2.66,3.14-5.59,2.18-9-.51-1.85-.86-3.73-2.08-5.34-.47-.63.34-.73.79-.85,4,2.79,5.17,5.71,4.09,10.24a12.44,12.44,0,0,1-6.73,8.5c-6.19,3.2-15.19-.27-14.7-9.8a17,17,0,0,1,6.26-12.43,33.79,33.79,0,0,1,8.61-5.13A82.92,82.92,0,0,1,60.6,78c3.55-.63,7.13-1.11,10.71-1.54,1.93-.23,2.11,0,2.18,1.72.48,11.33-.66,22.42-4.8,33.07a50.83,50.83,0,0,1-10.76,17.3,31,31,0,0,1-13.57,8.59,20.11,20.11,0,0,1-9.56.53c-6.52-1.26-10.86-6.72-10.25-13a10.55,10.55,0,0,1,2.46-6A7.5,7.5,0,0,1,32,116a5.46,5.46,0,0,1,5.77,3C38.92,121.34,38.49,123.11,36.18,125.39Z"/><path class="cls-5" d="M113.72,24.55c.5.1,1.09.2.89.89-.24.86-.74,1.66-.91,2.53a3.38,3.38,0,0,0,1.44,3.73,3.77,3.77,0,0,0,4.32-.29,5.68,5.68,0,0,0,.57-.53c1.42-1.45,3-2.68,3-5.14,0-2.82-.47-5.24-2.6-7.37a13.45,13.45,0,0,0-9.31-4c-6.26-.34-11.19,2.51-15.71,6.32-4.19,3.54-7.07,8.11-9.63,12.93A68.62,68.62,0,0,0,78.91,54,67,67,0,0,0,78,69.8c.09,1.53.62,2.08,2.22,1.93a35.36,35.36,0,0,0,6.08-.88c4.83-1.29,9.8-2,14.56-3.69a44.13,44.13,0,0,0,12.41-6.87,17.08,17.08,0,0,0,5.86-7.45c1.59-4.14,1-8.21-2.36-10.88-3-2.42-6.61-2.53-9.44.11-3,2.81-4.51,6.14-3.18,10.41a26.94,26.94,0,0,0,1.42,4,1.11,1.11,0,0,1-.37,1.37c-3.22-1.73-4.31-4.59-4.18-8.06a12.38,12.38,0,0,1,8-11c7.41-2.57,14.56,2.2,13.74,10.87a17.17,17.17,0,0,1-6.44,12,30.32,30.32,0,0,1-6.2,3.92,63.77,63.77,0,0,1-11.22,4.16A108.26,108.26,0,0,1,78.72,73.4c-2.17.17-2.27,0-2.34-2-.41-11.06.73-21.9,4.69-32.33a50.7,50.7,0,0,1,11.14-18c4.05-4.11,8.71-7.29,14.4-8.66a17.76,17.76,0,0,1,11.4.64,11.69,11.69,0,0,1,6,16.43,7.73,7.73,0,0,1-6,4.36A5.46,5.46,0,0,1,112.2,31C111,28.65,111.45,26.86,113.72,24.55Z"/><path class="cls-5" d="M24.46,36.07c.64-.8,1.31-.4,2.05-.1,2.13.87,3.34.61,4.81-.9a2.77,2.77,0,0,0,.77-2.84,5.87,5.87,0,0,0-2.32-3.47c-5.2-3.39-9.61-2.54-12.93,2.59a15.72,15.72,0,0,0-1.05,15.86,31.84,31.84,0,0,0,8.63,11.17c8,6.69,17.41,9.9,27.16,12.42,5.91,1.52,12,1,18.09,1,1.72,0,2.33-.77,2-2.48q-.69-4-1.55-7.93a115.94,115.94,0,0,0-3.46-13,40.69,40.69,0,0,0-6.6-11.73,17.52,17.52,0,0,0-9.48-6.36A8.61,8.61,0,0,0,40,37.67,7.77,7.77,0,0,0,42,43c2.32,3,7.72,4.14,11.34,2.66,1.08-.43,2.09-1,3.15-1.48a1.12,1.12,0,0,1,1.34.47c-2.25,3.93-5.72,4.88-9.9,4a12,12,0,0,1-8.45-6.2,10.29,10.29,0,0,1,0-10.7c2.13-3.6,5.62-4.79,9.61-4.54a17.07,17.07,0,0,1,12.38,6.34,33.12,33.12,0,0,1,4.77,7.93,80.67,80.67,0,0,1,5.4,18.11c.84,4.42,1.77,8.83,1.71,13.28-.69.76-1.5.6-2.26.63-10.39.38-20.6-.6-30.48-4.08a52.62,52.62,0,0,1-18-10.29c-4.79-4.29-8.55-9.3-10.13-15.68a17.61,17.61,0,0,1,.7-11.74c2.76-6.18,9.5-8.91,15.46-6.26,2.87,1.27,4.91,3.33,5.24,6.64a5.28,5.28,0,0,1-3.11,5.68C28.39,38.94,26.68,38.47,24.46,36.07Z"/><path class="cls-6" d="M138.15,66.59a8.44,8.44,0,0,1,8.5,8.24c.26,4.42-3.71,8.41-8.23,8.49a8.37,8.37,0,0,1-.27-16.73Z"/><path class="cls-6" d="M74.78,130a8.34,8.34,0,1,1,.37,16.68A8.34,8.34,0,1,1,74.78,130Z"/><path class="cls-6" d="M75.09,19.91A8.28,8.28,0,1,1,75,3.35a8.36,8.36,0,0,1,8.27,8.07A8.25,8.25,0,0,1,75.09,19.91Z"/><path class="cls-6" d="M19.91,75.1a8.28,8.28,0,0,1-8.5,8.21,8.35,8.35,0,0,1,.28-16.7A8.24,8.24,0,0,1,19.91,75.1Z"/><path class="cls-7" d="M72.64,52.33a1.57,1.57,0,0,1,.68.07,11.46,11.46,0,0,1,.41,1.38c0,.13-.25.33-.42.45s-.25-.07-.32-.16A1.78,1.78,0,0,1,72.64,52.33Z"/><path class="cls-8" d="M98.23,72.6a3.2,3.2,0,0,1-.23.68,5.38,5.38,0,0,1-1.13,0c-.18,0-.33-.28-.5-.44a1,1,0,0,1,.34-.17Z"/><path class="cls-9" d="M77.18,97.37l-.36,0-.36,0c0-.5-.08-1-.09-1.5,0-.09.17-.28.23-.27s.49.14.51.25C77.18,96.36,77.16,96.87,77.18,97.37Z"/><path class="cls-10" d="M42.51,73.34c-.11-.24-.22-.48-.34-.72.12,0,.26-.09.35-.05.32.15,1.07-.24.88.57C43.32,73.48,42.86,73.47,42.51,73.34Z"/><path class="cls-11" d="M53.09,77.09a1.52,1.52,0,0,1,0-.56c.49-.22,1.18-.19,1.19.28S53.58,77.26,53.09,77.09Z"/></g></g></svg>